:SAMPLES-PER-SECOND 30
:FULLY-SPECIFIED
:DEGREES
419
root  -2.79284 40.9179 1.00162 -17.5516 -87.0541 15.6425
RightUpLeg  6.43931 -2.91638 -2.99421
RightLeg  -1.27033 -20.9502 0.573245
RightFoot  -1.35269 -0.361682 4.02961
RightToes  -3.13006e-008 1.75238e-005 3.56266e-009
Spine  -4.31823 -0.0951692 -0.988334
Spine1  9.40123 0.0125812 -0.141174
HEad  -15.3064 8.91057 9.42403
LeftShoulder1  3.82014 -8.34077 -26.1199
LeftArm  -22.3676 -17.8393 -45.718
LeftForeArm  38.9336 -64.6304 -20.0085
LeftHand  0.189783 -5.47626 -1.71152
RightShoulder  3.66418 8.68794 23.9047
RightArm  -2.75168 7.72936 35.8492
RightForeArm  77.3874 79.6497 77.6901
RightHand  0.564303 4.92811 6.03065
LeftUpLeg  5.00688 1.11886 1.17849
LeftLeg  -1.77158 10.2246 -1.19922
LeftFoot  -0.677236 0.224033 -2.35514
LeftToes  4.76866e-008 1.46233e-008 1.30548e-009
420
root  -2.73646 40.9285 1.01796 -24.3388 -88.0474 22.7564
RightUpLeg  5.83133 -2.75135 -2.95778
RightLeg  -1.25459 -20.1317 0.502346
RightFoot  -1.12872 -0.367895 4.02924
RightToes  -3.13006e-008 1.75238e-005 3.56266e-009
Spine  -3.61342 -0.0960312 -0.242132
Spine1  7.89861 0.193781 -1.10487
HEad  -14.2697 8.90104 9.36662
LeftShoulder1  3.49336 -7.68923 -25.06
LeftArm  -24.9428 -24.6044 -46.027
LeftForeArm  36.6679 -64.3672 -20.0176
LeftHand  0.121977 -5.10228 -1.05752
RightShoulder  3.43278 8.68615 21.888
RightArm  -7.36957 16.2544 36.4679
RightForeArm  75.1928 79.5568 75.5736
RightHand  0.428066 5.43491 4.24927
LeftUpLeg  4.83035 1.04409 1.14787
LeftLeg  -2.09328 11.3421 -1.27429
LeftFoot  -0.491927 0.237206 -2.46464
LeftToes  4.76866e-008 1.46233e-008 1.30548e-009
421
root  -2.70077 40.9449 1.01621 -37.9687 -88.8155 36.8372
RightUpLeg  5.34765 -2.62866 -2.90565
RightLeg  -1.67606 -19.4711 0.673658
RightFoot  -0.77149 -0.364492 3.87979
RightToes  -3.13006e-008 1.75238e-005 3.56266e-009
Spine  -2.89026 0.120206 0.42792
Spine1  6.21564 0.556178 -1.94158
HEad  -13.8057 8.7647 9.2549
LeftShoulder1  3.5865 -8.23512 -24.3537
LeftArm  -28.442 -29.6676 -45.5698
LeftForeArm  35.8185 -64.5381 -20.3097
LeftHand  -0.105777 -4.47749 1.56853
RightShoulder  3.14289 8.33873 20.164
RightArm  -12.0996 22.6834 36.2873
RightForeArm  74.6438 79.5304 74.8411
RightHand  -0.0646783 5.17611 -0.954317
LeftUpLeg  4.46033 0.94815 1.15393
LeftLeg  -2.29722 12.2696 -1.30336
LeftFoot  -0.31329 0.248224 -2.55161
LeftToes  4.76866e-008 1.46233e-008 1.30548e-009
422
root  -2.70144 40.9561 1.00914 -59.9332 -89.2558 59.3283
RightUpLeg  4.76505 -2.51594 -2.84574
RightLeg  -1.85031 -19.0571 0.759442
RightFoot  -0.571626 -0.370026 3.8813
RightToes  -3.13006e-008 1.75238e-005 3.56266e-009
Spine  -2.60165 0.268015 0.726869
Spine1  4.98764 0.762558 -2.33998
HEad  -13.9026 8.98255 8.98333
LeftShoulder1  3.42386 -8.05521 -23.381
LeftArm  -30.9549 -33.6792 -45.6474
LeftForeArm  34.046 -65.1706 -21.2495
LeftHand  -0.247753 -3.17118 3.57547
RightShoulder  2.90924 8.02418 18.7527
RightArm  -17.1792 27.5559 35.6885
RightForeArm  73.8983 79.4878 73.1308
RightHand  -0.40278 6.17621 -4.40938
LeftUpLeg  4.04599 0.830995 1.15431
LeftLeg  -2.50693 12.9983 -1.32016
LeftFoot  -0.208445 0.253005 -2.58507
LeftToes  4.76866e-008 1.46233e-008 1.30548e-009
423
root  -2.72753 40.9606 1.00179 -78.7799 -89.4022 78.4797
RightUpLeg  4.5135 -2.40337 -2.7429
RightLeg  -2.02566 -18.9148 0.809542
RightFoot  -0.40986 -0.363708 3.76495
RightToes  -3.13006e-008 1.75238e-005 3.56266e-009
Spine  -2.73157 0.196093 0.664719
Spine1  4.64924 0.67328 -2.28471
HEad  -13.9329 8.29639 8.62602
LeftShoulder1  3.34411 -7.99185 -22.8161
LeftArm  -33.6349 -36.3096 -45.2112
LeftForeArm  33.6036 -66.5731 -23.0722
LeftHand  -0.291479 -2.7947 4.3652
RightShoulder  2.65261 7.48861 17.5645
RightArm  -21.8457 31.5708 35.0702
RightForeArm  71.2182 79.339 71.1361
RightHand  -0.549952 6.23713 -5.81788
LeftUpLeg  3.84226 0.8304 1.22879
LeftLeg  -2.63607 13.2759 -1.36167
LeftFoot  -0.170539 0.256771 -2.6125
LeftToes  4.76866e-008 1.46233e-008 1.30548e-009
424
root  -2.77689 40.962 0.984129 -107.508 -89.4059 107.268
RightUpLeg  4.50356 -2.33506 -2.67875
RightLeg  -2.06397 -18.6837 0.789992
RightFoot  -0.420456 -0.367705 3.83646
RightToes  -3.13006e-008 1.75238e-005 3.56266e-009
Spine  -3.01595 0.136403 0.215594
Spine1  4.86851 0.538335 -1.82242
HEad  -14.0907 7.08662 8.56518
LeftShoulder1  3.20949 -7.65589 -22.4697
LeftArm  -35.4337 -37.5419 -45.2907
LeftForeArm  35.1633 -68.8574 -26.2548
LeftHand  -0.326305 -2.19123 5.18552
RightShoulder  2.54036 7.22843 17.0623
RightArm  -26.2141 33.9917 34.3391
RightForeArm  72.1377 79.3958 72.4226
RightHand  -0.573036 6.30794 -6.00605
LeftUpLeg  3.99028 0.874089 1.28971
LeftLeg  -2.83148 13.4929 -1.41729
LeftFoot  -0.179078 0.258987 -2.62463
LeftToes  4.76866e-008 1.46233e-008 1.30548e-009
425
root  -2.84845 40.958 0.962501 -129.545 -89.3273 129.254
RightUpLeg  4.62705 -2.24113 -2.57781
RightLeg  -2.02825 -18.5348 0.701479
RightFoot  -0.519757 -0.365416 3.82826
RightToes  -3.13006e-008 1.75238e-005 3.56266e-009
Spine  -3.62195 0.119494 0.0861506
Spine1  5.57806 0.539841 -1.83313
HEad  -14.3839 5.3621 8.00086
LeftShoulder1  3.23673 -7.6694 -22.688
LeftArm  -36.4748 -37.5815 -44.8487
LeftForeArm  40.2002 -71.4678 -30.5863
LeftHand  -0.380759 -2.19648 6.02787
RightShoulder  2.5331 7.07201 17.3715
RightArm  -29.5885 34.8657 33.6109
RightForeArm  77.9041 79.6749 77.8562
RightHand  -0.495807 6.10445 -5.33214
LeftUpLeg  4.22105 0.965214 1.37168
LeftLeg  -2.88305 13.603 -1.44318
LeftFoot  -0.285258 0.267988 -2.7502
LeftToes  4.76866e-008 1.46233e-008 1.30548e-009
426
root  -2.91418 40.9509 0.948679 -120.896 -89.5187 120.557
RightUpLeg  4.84637 -2.19917 -2.4408
RightLeg  -2.10148 -18.7699 0.755728
RightFoot  -0.616533 -0.360582 3.78845
RightToes  -3.13006e-008 1.75238e-005 3.56266e-009
Spine  -4.14081 -0.117705 0.056517
Spine1  6.08688 0.310442 -1.88749
HEad  -13.3715 2.7818 6.7167
LeftShoulder1  3.34011 -7.84349 -23.1838
LeftArm  -36.8473 -35.9851 -44.2969
LeftForeArm  48.7161 -74.5294 -37.6907
LeftHand  -0.359726 -2.26026 5.65964
RightShoulder  2.53447 6.7953 18.0816
RightArm  -31.4715 34.6311 33.5887
RightForeArm  85.5034 79.8927 84.618
RightHand  -0.504506 6.52237 -5.24341
LeftUpLeg  4.18237 1.05205 1.50176
LeftLeg  -2.50768 13.3224 -1.30202
LeftFoot  -0.521165 0.264351 -2.68616
LeftToes  4.76866e-008 1.46233e-008 1.30548e-009
427
root  -2.9882 40.9441 0.931796 -116.118 -89.5023 115.601
RightUpLeg  5.05909 -2.27032 -2.46335
RightLeg  -1.85686 -18.7203 0.68512
RightFoot  -0.840958 -0.362927 3.88317
RightToes  -3.13006e-008 1.75238e-005 3.56266e-009
Spine  -4.69346 -0.283206 -0.25777
Spine1  6.83824 0.124652 -1.66383
HEad  -13.4443 1.20395 6.04453
LeftShoulder1  3.3289 -7.71754 -23.427
LeftArm  -36.2225 -33.3727 -44.7927
LeftForeArm  60.3209 -77.2147 -47.6213
LeftHand  -0.417345 -2.60438 6.27969
RightShoulder  2.6094 6.89088 18.6193
RightArm  -32.7216 33.0022 33.8
RightForeArm  96.8917 79.8849 96.0598
RightHand  -0.428712 6.37375 -4.56607
LeftUpLeg  4.51623 1.088 1.50423
LeftLeg  -2.56316 13.2536 -1.29961
LeftFoot  -0.602916 0.261437 -2.63938
LeftToes  4.76866e-008 1.46233e-008 1.30548e-009
428
root  -3.06713 40.9385 0.911387 -85.2381 -89.5541 84.4674
RightUpLeg  5.46823 -2.37716 -2.47865
RightLeg  -1.78251 -18.8591 0.705595
RightFoot  -1.03801 -0.355293 3.85998
RightToes  -3.13006e-008 1.75238e-005 3.56266e-009
Spine  -5.35117 -0.608148 -0.622025
Spine1  7.89651 -0.220766 -1.4473
HEad  -13.0622 -0.115497 4.99727
LeftShoulder1  3.29416 -7.47852 -23.7726
LeftArm  -35.5218 -30.4969 -45.41
LeftForeArm  74.8486 -79.1647 -60.0919
LeftHand  -0.451478 -3.49004 6.15327
RightShoulder  2.69861 6.96048 19.3601
RightArm  -33.1019 30.9438 33.9093
RightForeArm  107.601 79.431 107.492
RightHand  -0.407785 6.70493 -4.24678
LeftUpLeg  4.85471 1.17621 1.56427
LeftLeg  -2.48343 12.8905 -1.27931
LeftFoot  -0.731343 0.268948 -2.75989
LeftToes  4.76866e-008 1.46233e-008 1.30548e-009
429
root  -3.12201 40.9316 0.891734 -65.4573 -89.5231 64.573
RightUpLeg  5.64642 -2.3736 -2.41625
RightLeg  -1.65652 -19.0145 0.660561
RightFoot  -1.17493 -0.349985 3.8409
RightToes  -3.13006e-008 1.75238e-005 3.56266e-009
Spine  -6.02939 -0.795195 -0.926382
Spine1  8.84463 -0.440655 -1.20429
HEad  -12.4319 -1.81483 3.96372
LeftShoulder1  3.33674 -7.43315 -24.3138
LeftArm  -34.7433 -27.4342 -45.8288
LeftForeArm  90.6411 -80.3076 -74.0626
LeftHand  -0.388338 -3.88349 5.13619
RightShoulder  2.79641 6.93991 20.4244
RightArm  -32.8543 28.8967 33.5566
RightForeArm  115.978 78.7224 116.562
RightHand  -0.344423 6.37581 -3.736
LeftUpLeg  4.98975 1.28858 1.66343
LeftLeg  -2.34794 12.5966 -1.27568
LeftFoot  -0.848207 0.263754 -2.68691
LeftToes  4.76866e-008 1.46233e-008 1.30548e-009
430
root  -3.18082 40.9242 0.87012 -50.4266 -89.5024 49.3983
RightUpLeg  5.93904 -2.38115 -2.33978
RightLeg  -1.68048 -19.1695 0.697146
RightFoot  -1.30456 -0.346116 3.83612
RightToes  -3.13006e-008 1.75238e-005 3.56266e-009
Spine  -6.81592 -0.913082 -1.09859
Spine1  9.95082 -0.589178 -1.00501
HEad  -11.7783 -2.88342 2.60366
LeftShoulder1  3.37305 -7.34651 -24.9191
LeftArm  -33.9614 -24.8667 -46.3727
LeftForeArm  103.167 -80.7159 -84.8482
LeftHand  -0.371828 -4.72104 4.55941
RightShoulder  2.81073 6.79414 20.9803
RightArm  -32.2451 26.8156 33.8027
RightForeArm  121.647 78.1926 121.65
RightHand  -0.341576 6.92592 -3.55774
LeftUpLeg  5.13404 1.39944 1.77944
LeftLeg  -2.14286 12.3357 -1.22526
LeftFoot  -1.04382 0.26251 -2.67863
LeftToes  4.76866e-008 1.46233e-008 1.30548e-009
431
root  -3.23555 40.9194 0.857764 -77.2289 -89.5457 76.0072
RightUpLeg  6.10705 -2.49601 -2.45176
RightLeg  -1.43531 -18.8063 0.620201
RightFoot  -1.50656 -0.35095 3.9555
RightToes  -3.13006e-008 1.75238e-005 3.56266e-009
Spine  -7.46936 -0.885585 -1.08106
Spine1  10.8963 -0.516441 -1.09656
HEad  -10.9915 -3.37013 1.20018
LeftShoulder1  3.39413 -7.28659 -25.304
LeftArm  -33.5783 -22.7349 -46.9069
LeftForeArm  112.384 -80.83 -92.2148
LeftHand  -0.332597 -5.0477 4.00526
RightShoulder  2.81789 6.69142 21.3488
RightArm  -31.591 24.9 33.7088
RightForeArm  125.99 77.5891 126.047
RightHand  -0.210296 6.32809 -2.42264
LeftUpLeg  5.49547 1.4449 1.74451
LeftLeg  -2.21004 12.4933 -1.28833
LeftFoot  -1.11581 0.257644 -2.61631
LeftToes  4.76866e-008 1.46233e-008 1.30548e-009
432
root  -3.25776 40.9189 0.847838 -83.9273 -89.5369 82.7285
RightUpLeg  6.08955 -2.50974 -2.45996
RightLeg  -1.39257 -18.7337 0.615608
RightFoot  -1.55743 -0.346017 3.91022
RightToes  -3.13006e-008 1.75238e-005 3.56266e-009
Spine  -8.13978 -0.974961 -0.913778
Spine1  11.6924 -0.536171 -1.38089
HEad  -10.1963 -4.35349 -0.703423
LeftShoulder1  3.33025 -7.08129 -25.3111
LeftArm  -33.4623 -21.0981 -47.7069
LeftForeArm  119.234 -80.8773 -96.7669
LeftHand  -0.300513 -5.49671 3.51867
RightShoulder  2.89802 6.83078 21.7798
RightArm  -31.1334 23.4514 33.4372
RightForeArm  128.514 77.2751 128.153
RightHand  -0.0856681 6.42568 -1.1832
LeftUpLeg  5.5008 1.41001 1.72318
LeftLeg  -2.18254 12.5972 -1.24183
LeftFoot  -1.15205 0.267196 -2.77968
LeftToes  4.76866e-008 1.46233e-008 1.30548e-009
